PathFileType	4	(X/Y/Z)	RBDS024\RBDS024runT45.trc
DataRate	CameraRate	NumFrames	NumMarkers	Units	OrigDataRate	OrigDataStartFrame	OrigNumFrames
150.000000	150.000000	5	32	mm	150.000000	3937	4500
Frame#	Time	L.ASIS			L.Heel.Bottom			L.Heel.Lateral			L.Heel.Top			L.Iliac.Crest			L.MT5			L.PSIS			L.Shank.Bottom.Lateral			L.Shank.Bottom.Medial			L.Shank.Top.Lateral			L.Shank.Top.Medial			L.Thigh.Bottom.Lateral			L.Thigh.Bottom.Medial			L.Thigh.Top.Lateral			L.Thigh.Top.Medial			R.ASIS			R.ASY			R.Heel.Bottom			R.Heel.Lateral			R.Heel.Top			R.Iliac.Crest			R.MT1			R.MT5			R.PSIS			R.Shank.Bottom.Lateral			R.Shank.Bottom.Medial			R.Shank.Top.Lateral			R.Shank.Top.Medial			R.Thigh.Bottom.Lateral			R.Thigh.Bottom.Medial			R.Thigh.Top.Lateral			R.Thigh.Top.Medial			
		X1	Y1	Z1	X2	Y2	Z2	X3	Y3	Z3	X4	Y4	Z4	X5	Y5	Z5	X6	Y6	Z6	X7	Y7	Z7	X8	Y8	Z8	X9	Y9	Z9	X10	Y10	Z10	X11	Y11	Z11	X12	Y12	Z12	X13	Y13	Z13	X14	Y14	Z14	X15	Y15	Z15	X16	Y16	Z16	X17	Y17	Z17	X18	Y18	Z18	X19	Y19	Z19	X20	Y20	Z20	X21	Y21	Z21	X22	Y22	Z22	X23	Y23	Z23	X24	Y24	Z24	X25	Y25	Z25	X26	Y26	Z26	X27	Y27	Z27	X28	Y28	Z28	X29	Y29	Z29	X30	Y30	Z30	X31	Y31	Z31	X32	Y32	Z32	

3938	26.24666666666667	2064.920083916536	949.9977623194853	876.1290046513205	1493.445322161689	131.6691986632302	982.3961793041905	1517.857808053472	134.7344411655539	936.1140138538291	1521.00608260772	166.2602084941236	977.9445235773366	1971.87237506929	1021.776137217283	833.3330482727515	1645.659203261208	44.71583010714765	889.4085266347416	1889.351167684351	993.7141675236423	956.7844076967938	1632.905624427598	212.7541075886773	905.2175317589489	1602.088907031049	242.9016920069188	932.3361956368175	1675.961862506176	275.478272381558	877.083083684182	1647.090668998188	310.0081096222212	905.1093397443619	1875.806049330845	593.7000208547056	827.69441394196	1821.40866885577	606.2661335884363	872.3835135399837	1886.302922618621	703.1642193040375	816.8993516086139	1838.889711384742	714.8127063530324	864.557718327323	2076.702946225394	950.327760550632	1109.52687939988	2020.373500524797	215.0358479386722	1076.432604961124	1864.181840429693	318.9177850911132	1032.190442598666	1891.61627303725	312.7805943288652	1082.885825798719	1902.465067423971	340.836027979786	1035.532070137137	2001.462181896932	1021.809341839099	1167.702562162575	2013.298021140727	156.6985704588084	1029.811286789873	1978.939767138195	185.9679208838206	1135.41672731983	1895.627857968126	987.604194492188	1058.556898834254	2005.950295160477	373.6305170859473	1103.491221218155	1986.785273914809	402.5911884289731	1060.438507177648	2058.135894074227	434.5792830395332	1118.460934808613	2038.497113372892	461.7989849492272	1076.479545773438	2196.813112159076	650.0336388850283	1160.68520787865	2155.181615098425	609.8660732630034	1116.377845658372	2111.667453247394	716.6490186809955	1177.757218360715	2071.028687586306	674.8781588862225	1139.959203724527	
3939	26.25333333333333	2068.201577861223	951.8827185544868	876.6023057846916	1474.454452738135	147.0046457199298	981.2573559257391	1498.650833054942	147.6082780182981	934.8127892556643	1504.149103873311	179.2855513513983	976.044880315809	1980.286675184328	1025.421874691862	833.0973920107105	1618.363190957579	47.47436469131322	889.2712666310819	1892.817624743657	998.4588971875872	955.431575667619	1613.746232249998	223.0196156205428	903.7402766306084	1583.75063081036	252.5670181250472	932.321041969229	1656.766516747012	286.2196806875912	876.6154556914689	1628.710808684349	320.0955851872775	906.1895104822252	1864.975867144612	601.6530324240183	829.0588163528265	1811.754959688277	616.8800997288976	874.444682376937	1880.435611877946	710.4697863008286	817.8457184294585	1834.244070603114	724.3529087323275	866.1237860966418	2079.141470231512	957.1557571051534	1108.0176140043	2051.815839973645	204.23982041343	1077.931846590212	1887.574568896444	294.1243755171257	1031.153746859276	1915.002372045848	291.0205983098462	1082.121679351554	1923.889748085511	319.2923361645181	1034.447466711727	2005.015296448351	1028.728048102557	1167.037601968326	2050.058371484788	144.717312345723	1032.13554393176	2012.403323728141	172.5256403312895	1137.031372004185	1898.174678122337	993.1788288500422	1057.695103153368	2024.222656941676	361.2987374469891	1102.832193672293	2003.421387621454	388.0081521726015	1059.020319740478	2071.528969113514	426.2822424427321	1117.212971752435	2050.412251541942	451.2481654774378	1074.540084884334	2200.724555822446	658.002601925729	1159.866885483281	2158.793516053004	617.3934403444047	1116.19278480462	2115.168529660102	723.8719247318343	1178.070364001655	2074.522232300084	681.8722613912665	1140.748583124575	
3940	26.26	2071.482270756218	953.6460692910869	877.1625441162424	1457.590075639392	163.2400431917991	980.1127506327035	1481.216746047726	161.3051438423121	933.4659807983946	1489.412545307878	192.8769635810343	974.0099793282463	1988.854570377862	1028.860797268952	833.0392460219404	1591.559838250198	51.11525743963569	888.992489904914	1896.350229896156	1003.346047720484	954.1757695161776	1596.154628126159	233.5519439902199	901.9853373899394	1567.022077251422	262.3870388595553	932.1104302667711	1639.06932705429	297.2899070296772	875.9496241809089	1611.878964894573	330.385083301204	907.1586251585982	1854.830773407203	609.977080786934	830.4146126655522	1803.046085358758	627.5171935361058	876.7129521382375	1874.941946639641	718.0180110712694	818.9991687204401	1830.244462892412	733.8239446966832	868.0894790256789	2081.545346283115	963.9272626026758	1106.547418130122	2083.824627693848	194.2672669481383	1079.036677824943	1912.712549741581	269.66082020584	1030.464034726941	1939.92016177589	269.4203791272432	1081.621025757582	1946.786673360264	297.8750659632308	1033.660536744343	2008.643571558027	1035.817073206423	1166.362096958617	2087.359883658934	134.1588718409949	1033.938468630194	2046.685860231187	159.93395965245	1138.315028526589	1900.862929891629	998.8494876627476	1056.861659645811	2043.27025993646	348.705432382283	1102.317631125206	2020.954471540411	373.1291132262109	1057.850207705228	2085.385783765866	417.3256892430234	1116.152197553601	2062.928078750241	440.0089195866458	1072.883950320647	2203.860867292358	665.1165515858374	1158.885624749149	2161.362237109072	624.0967268993053	1116.140591620315	2118.173128998893	730.6050883818185	1178.233805262834	2077.276294387717	688.4539514954523	1141.599340879075	
3941	26.26666666666667	2074.688440767491	955.3290800000017	877.7982708896297	1442.786726755623	180.2697514943186	979.0444255146984	1465.478415748359	175.8056796476684	932.1584205283432	1476.666765286724	206.9749549336298	971.9468995012336	1997.294805139315	1032.084351766164	833.1339086503376	1565.315979362793	55.88854989781699	888.5961207400879	1899.883116295162	1008.333425219633	953.0367764347653	1580.085806616838	244.2803997186655	900.0532550994296	1551.854032482731	272.3398165720907	931.7503454189451	1622.902768030834	308.5546463522722	875.1499808764205	1596.62533501114	340.7919142363837	908.023055789092	1845.467610589104	618.4772164502773	831.7560368472816	1795.308214298837	637.9346283835634	879.135493394513	1869.839293321369	725.6660952852701	820.3547076015793	1826.843040931087	743.044463986569	870.4180930973919	2083.835255277421	970.4975270956226	1105.187755921661	2116.277065759866	185.2415541347505	1079.706378839209	1939.496097879215	245.7248722615725	1030.145153304858	1966.327738249583	248.1627286002003	1081.405827068806	1971.066077427957	276.7644739387149	1033.20906767419	2012.154519667791	1042.950481871819	1165.651143598366	2125.010854888772	125.1590795422201	1035.129625902825	2081.738205485069	148.3280271259784	1139.210843359593	1903.641302499479	1004.546924706419	1056.058917004173	2063.073013328878	335.9535457840893	1101.978363489023	2039.333127806512	358.0916680078901	1056.995176831615	2099.728292950229	407.7674623743531	1115.354439657779	2076.03236221832	428.1743964448095	1071.616122524505	2206.178696483238	671.2576088649419	1157.763821012926	2162.855896428321	629.8520233990268	1116.258049261372	2120.651053871816	736.7446200539753	1178.217670632236	2079.255663769331	694.511542782174	1142.488764455974	
3942	26.27333333333333	2077.749498419526	956.9868289993958	878.4917910822053	1429.875875940252	197.9814145603119	978.1311777018684	1451.293894362669	191.088700450722	930.9767624995512	1465.6817438047	221.5396414967946	969.975731798348	2005.327821379945	1035.116903795487	833.3491152223372	1539.737004545339	62.03893623456748	888.1132496829839	1903.349130826171	1013.371322447206	952.0374919430051	1565.447275245465	255.1795420594173	898.0697239260995	1538.147861559321	282.461379684668	931.3031235946462	1608.263255582332	319.9127565404563	874.296040642653	1582.94199214217	351.2778148167258	908.7970078266326	1836.997676425012	626.9433367877391	833.0765873704654	1788.568219111317	647.9009307869683	881.6446983305217	1865.166582218096	733.2570199486918	821.8858706011821	1823.995055147954	751.8418405564923	873.0358269410141	2085.942202739774	976.7139479858282	1103.995723832414	2149.00688803486	177.299146839058	1079.912499743144	1967.788297626663	222.5161981978746	1030.182002630475	1994.142408006833	227.4425089802321	1081.463623435214	1996.60181139462	256.1416403757586	1033.100976009853	2015.38788885151	1049.994049948682	1164.878345099556	2162.781552324754	117.8600111353038	1035.634625812878	2117.462003031469	137.869486089657	1139.661648803082	1906.452338367837	1010.197595431486	1055.303569840871	2083.566282817028	323.170374136358	1101.832910864895	2058.46378140118	343.0450845549644	1056.497984226701	2114.53603846462	397.6954632834862	1114.882230268539	2089.670101177883	415.8565417515671	1070.81867330357	2207.628183525293	676.3108811731603	1156.552593037035	2163.250419291583	634.5607903528668	1116.569701818755	2122.567368894821	742.1822441387004	1178.020707677913	2080.433024404463	699.944467076238	1143.392040354694	
